<mxfile host="app.diagrams.net" modified="2023-10-19T07:52:37.532Z" agent="Mozilla/5.0 (Windows NT 10.0; Win64; x64) AppleWebKit/537.36 (KHTML, like Gecko) Chrome/118.0.0.0 Safari/537.36 Edg/118.0.2088.46" etag="ZYmKd0cv91EafIsypnLX" version="22.0.4" type="github">
  <diagram name="第 1 页" id="bo_SQOkKkjdySiT44u7f">
    <mxGraphModel dx="786" dy="505" grid="1" gridSize="10" guides="1" tooltips="1" connect="1" arrows="1" fold="1" page="1" pageScale="1" pageWidth="827" pageHeight="1169" math="0" shadow="0">
      <root>
        <mxCell id="0" />
        <mxCell id="1" parent="0" />
        <mxCell id="boL0MD9To1c5I9AJ33p1-1" value="博主发布内容笔记" style="rounded=1;whiteSpace=wrap;html=1;" vertex="1" parent="1">
          <mxGeometry x="70" y="170" width="120" height="60" as="geometry" />
        </mxCell>
        <mxCell id="boL0MD9To1c5I9AJ33p1-2" value="博主在评论区与中国移动云盘小红书官方账号进行互动" style="rounded=1;whiteSpace=wrap;html=1;" vertex="1" parent="1">
          <mxGeometry x="250" y="170" width="120" height="60" as="geometry" />
        </mxCell>
        <mxCell id="boL0MD9To1c5I9AJ33p1-3" value="" style="endArrow=none;html=1;rounded=0;" edge="1" parent="1">
          <mxGeometry width="50" height="50" relative="1" as="geometry">
            <mxPoint x="190" y="200" as="sourcePoint" />
            <mxPoint x="260" y="200" as="targetPoint" />
          </mxGeometry>
        </mxCell>
        <mxCell id="boL0MD9To1c5I9AJ33p1-4" value="引导用户关注中国移动云盘小红书官方账号" style="rounded=1;whiteSpace=wrap;html=1;" vertex="1" parent="1">
          <mxGeometry x="430" y="170" width="120" height="60" as="geometry" />
        </mxCell>
        <mxCell id="boL0MD9To1c5I9AJ33p1-5" value="" style="endArrow=none;html=1;rounded=0;" edge="1" parent="1">
          <mxGeometry width="50" height="50" relative="1" as="geometry">
            <mxPoint x="370" y="199.5" as="sourcePoint" />
            <mxPoint x="430" y="199.5" as="targetPoint" />
          </mxGeometry>
        </mxCell>
        <mxCell id="boL0MD9To1c5I9AJ33p1-7" value="" style="endArrow=none;html=1;rounded=0;" edge="1" parent="1">
          <mxGeometry width="50" height="50" relative="1" as="geometry">
            <mxPoint x="550" y="199.5" as="sourcePoint" />
            <mxPoint x="620" y="199.5" as="targetPoint" />
          </mxGeometry>
        </mxCell>
        <mxCell id="boL0MD9To1c5I9AJ33p1-8" value="官号置顶新手指南、新手福利等引导用户下载移动云盘APP" style="rounded=1;whiteSpace=wrap;html=1;" vertex="1" parent="1">
          <mxGeometry x="610" y="170" width="120" height="60" as="geometry" />
        </mxCell>
      </root>
    </mxGraphModel>
  </diagram>
</mxfile>
